<?xml version="1.0" encoding="UTF-8" standalone="no"?>

<svg
   width="50.200001mm"
   height="17mm"
   viewBox="0 0 50.200001 17"
   version="1.1"
   id="svg1"
   inkscape:version="1.3.2 (091e20e, 2023-11-25, custom)"
   sodipodi:docname="hoko.svg"
   xmlns:inkscape="http://www.inkscape.org/namespaces/inkscape"
   xmlns:sodipodi="http://sodipodi.sourceforge.net/DTD/sodipodi-0.dtd"
   xmlns="http://www.w3.org/2000/svg"
   xmlns:svg="http://www.w3.org/2000/svg">
  <sodipodi:namedview
     id="namedview1"
     pagecolor="#ffffff"
     bordercolor="#000000"
     borderopacity="0.25"
     inkscape:showpageshadow="2"
     inkscape:pageopacity="0.0"
     inkscape:pagecheckerboard="0"
     inkscape:deskcolor="#d1d1d1"
     inkscape:document-units="mm"
     showguides="false"
     inkscape:zoom="2.0686841"
     inkscape:cx="153.72091"
     inkscape:cy="-55.832593"
     inkscape:window-width="1920"
     inkscape:window-height="1017"
     inkscape:window-x="1912"
     inkscape:window-y="-8"
     inkscape:window-maximized="1"
     inkscape:current-layer="layer1" />
  <defs
     id="defs1" />
  <g
     inkscape:label="Layer 1"
     inkscape:groupmode="layer"
     id="layer1">
    <path
       d="m 3.8782973,16.687777 c 0.541867,-0.0677 1.083735,-0.2032 1.512713,-0.54186 0.293511,-0.24836 0.474134,-0.6096 0.564445,-0.97085 0.112889,-0.47413 0.06773,-0.94827 0.09031,-1.44498 0.02258,-1.28693 0.06773,-2.70933 0.699912,-3.8382205 0.2032,-0.4064 0.519289,-0.7902298 0.903112,-1.0160098 0.383823,-0.24835 0.993423,-0.2032 1.286935,0.13547 0.496711,0.5418698 0.316089,2.5061403 0.270933,3.2286303 -0.06773,0.8128 -0.135467,1.6256 -0.09031,2.41582 0.04516,0.49671 0.112889,0.99342 0.383823,1.39983 0.225778,0.33866 0.5418677,0.54186 0.9482677,0.6096 0.654756,0.0903 2.212625,-0.22578 2.709336,-0.69992 0.203201,-0.2032 0.31609,-0.51929 0.31609,-0.8128 0,-0.31609 -0.270934,-2.032 -0.293512,-2.34809 -0.09031,-1.26436 0,-2.52871 -0.2032,-3.7930703 -0.112889,-0.74507 -0.451556,-1.49013 -0.948268,-2.05458 -0.316089,-0.36124 -0.699911,-0.65475 -1.151468,-0.8128 -0.9031127,-0.38382 -2.0320027,-0.38382 -2.9351147,0.0226 -0.767645,0.33867 -1.422401,0.94827 -1.964268,1.6256 0,-0.83538 0.02258,-1.64818 0.112889,-2.46098 0.09031,-0.83538 0.225778,-1.64818 0.293511,-2.48356 0.04516,-0.49671 0.06773,-1.016 -0.135467,-1.44498 -0.451556,-1.03858003 -2.415824,-1.44498003 -3.544714,-1.37724003 -0.451556,0.0226 -0.948268,0.22577 -1.264357,0.56444 C 1.0560723,1.0413867 0.85287233,1.6509867 0.73998333,2.2154267 c -0.225778,1.03858 -0.338667,2.07716 -0.361245,3.13832 0,0 0,0.0226 -0.02258,0.0226 -0.270933,1.98684 -0.293511,3.9962698 -0.180622,6.0056903 0.06773,1.03858 0.135467,2.07716 0.270934,3.09316 0.04515,0.47413 0.135466,0.94827 0.361244,1.35467 0.22577797,0.38382 0.67733397,0.67733 1.10631297,0.8128 0.632178,0.18062 1.309512,0.15804 1.964268,0.0452 z m 18.7621467,-0.31609 c 0.72249,-0.33866 1.44498,-0.88053 1.8288,-1.60302 0.49671,-0.83538 0.79022,-1.80622 0.97085,-2.77707 0.22577,-1.17404 0.0677,-2.4609805 -0.24836,-3.6350203 -0.22578,-0.83538 -0.63218,-1.71592 -1.30951,-2.28036 -0.79022,-0.65476 -1.89654,-0.97085 -2.91254,-1.06116 -0.74507,-0.0452 -1.51271,-0.0452 -2.2352,0.15805 -0.0226,0.0226 -0.2032,0.0226 -0.24836,0.0226 -0.69991,0.13547 -1.35466,0.47414 -1.96426,0.88054 -0.97085,0.65475 -1.76107,1.71591 -2.07716,2.8448 -0.4064,1.5127103 -0.45156,3.2060503 0.0452,4.6961803 0.33867,1.03858 1.06116,2.032 2.00943,2.57387 0.99342,0.58702 2.21262,0.74507 3.34151,0.76765 0.97085,0.0226 1.94169,-0.15805 2.79965,-0.58703 z m -4.01885,-6.4120905 c 0.2032,-0.6321798 0.63218,-1.2191998 1.17405,-1.6030198 0.29351,-0.18063 0.63218,-0.31609 0.97084,-0.36125 0.94827,-0.13547 1.78365,0.58702 1.91912,1.5352898 0.13546,0.9482705 -0.15805,1.8513805 -0.83538,2.5512905 -0.4064,0.4064 -0.99343,0.72249 -1.55787,0.74507 -1.4224,0.0452 -2.09974,-1.51271 -1.67076,-2.8673805 z m 12.91449,6.4346705 c 0.33866,-0.27093 0.58702,-0.72249 0.69991,-1.15147 0.13547,-0.63217 0.0677,-1.26435 0.11289,-1.89653 0.0226,-0.56445 -0.0903,-1.12889 -0.0452,-1.69334 0,-0.15804 0,-0.36124 0.15805,-0.33866 0.31609,0.0677 0.58702,0.36124 0.74506,0.65475 0.47414,0.90312 0.4064,2.00943 0.42898,3.04801 0,0.36124 0.0452,0.74506 0.2032,1.08373 0.11289,0.22578 0.31609,0.42898 0.54187,0.56445 0.31609,0.18062 0.69991,0.24835 1.06116,0.27093 0.4064,0.0226 1.78364,-0.0903 2.14489,-0.27093 0.24835,-0.11289 0.36124,-0.38383 0.31609,-0.65476 0,-0.0677 -0.11289,-0.42898 -0.11289,-0.49671 -0.31609,-1.28694 0.0451,-2.68676 -0.4064,-3.90596 -0.15805,-0.45156 -0.49671,-0.83538 -0.88054,-1.08374 -0.49671,-0.316091 -1.10631,-0.474131 -1.69333,-0.5870205 0.83538,-0.7450698 1.80622,-1.3546698 2.59644,-2.1674698 0.33867,-0.33866 0.63218,-0.83538 0.63218,-1.30951 -0.0226,-0.56445 -0.4064,-1.08373 -0.79022,-1.49014 -0.29351,-0.33866 -0.67733,-0.67733 -1.10631,-0.76764 -0.29351,-0.0677 -0.6096,0 -0.88054,0.13547 -0.67733,0.33866 -1.24178,0.90311 -1.73849,1.49013 -0.45155,0.54187 -0.88053,1.10631 -1.28693,1.67076 -0.13547,-1.2192 -0.0903,-2.48356 -0.0677,-3.72534 0.0226,-0.65475 0.0452,-1.33209 -0.0677,-2.00942 -0.0677,-0.38383 -0.24835,-0.79023003 -0.54187,-1.03858003 -0.67733,-0.58702 -2.48355,-0.72249 -3.34151,-0.42898 -0.42898,0.15804 -0.76765,0.45156 -0.97085,0.85796003 -0.24835,0.54186 -0.38382,1.15146 -0.42897,1.76107 -0.13547,1.2192 -0.13547,2.4384 -0.11289,3.6576 0,0.0226 0,0.0452 0,0.0452 -0.11289,2.50614 -0.0903,5.0348503 0.22578,7.5184103 0.0677,0.51929 0.13546,1.03858 0.33866,1.53529 0.11289,0.31609 0.29351,0.6096 0.56445,0.83538 0.31609,0.24836 0.72249,0.38382 1.10631,0.45156 0.88053,0.13546 1.89653,-0.0226 2.59645,-0.56445 z m 15.73673,-0.0226 c 0.72249,-0.33866 1.44498,-0.88053 1.8288,-1.60302 0.49671,-0.83538 0.79022,-1.80622 0.97085,-2.77707 0.22577,-1.17404 0.0677,-2.4609805 -0.24836,-3.6350203 -0.22578,-0.83538 -0.63218,-1.71592 -1.30951,-2.28036 -0.79022,-0.65476 -1.89654,-0.97085 -2.91254,-1.06116 -0.74507,-0.0452 -1.51271,-0.0452 -2.2352,0.15805 -0.0226,0.0226 -0.2032,0.0226 -0.24836,0.0226 -0.69991,0.13547 -1.35466,0.47414 -1.96426,0.88054 -0.97085,0.65475 -1.76107,1.71591 -2.07716,2.8448 -0.4064,1.5127103 -0.45156,3.2060503 0.0451,4.6961803 0.33867,1.03858 1.06116,2.032 2.00943,2.57387 0.99342,0.58702 2.21262,0.74507 3.34151,0.76765 0.97085,0.0226 1.94169,-0.15805 2.79965,-0.58703 z m -4.01885,-6.4120905 c 0.2032,-0.6321798 0.63218,-1.2191998 1.17405,-1.6030198 0.29351,-0.18063 0.63218,-0.31609 0.97084,-0.36125 0.94827,-0.13547 1.78365,0.58702 1.91912,1.5352898 0.13546,0.9482705 -0.15805,1.8513805 -0.83538,2.5512905 -0.4064,0.4064 -0.99343,0.72249 -1.55787,0.74507 -1.4224,0.0452 -2.09974,-1.51271 -1.67076,-2.8673805 z"
       id="text1"
       style="font-size:22.5778px;font-family:'The Fruit Star';-inkscape-font-specification:'The Fruit Star';text-align:center;text-anchor:middle;fill:#008080;stroke-width:0.264583"
       aria-label="hoko" />
  </g>
</svg>
